<svg xmlns="http://www.w3.org/2000/svg" viewBox="0 0 1114.95 1004.35"><defs><style>.cls-1{isolation:isolate;}.cls-2{fill:#0f00ba;}.cls-3{opacity:0.08;mix-blend-mode:multiply;}</style></defs><g class="cls-1"><g id="Capa_2" data-name="Capa 2"><g id="Capa_1-2" data-name="Capa 1"><path class="cls-2" d="M268.42,741.18a9.24,9.24,0,1,1,9.23,9.24A9.23,9.23,0,0,1,268.42,741.18Z"/><path class="cls-2" d="M179,741.18a9.23,9.23,0,1,1,9.23,9.24A9.23,9.23,0,0,1,179,741.18Z"/><path class="cls-2" d="M89.47,741.18a9.24,9.24,0,1,1,9.24,9.24A9.24,9.24,0,0,1,89.47,741.18Z"/><path class="cls-2" d="M0,741.18a9.24,9.24,0,1,1,9.23,9.24A9.23,9.23,0,0,1,0,741.18Z"/><path class="cls-2" d="M268.42,663.78a9.24,9.24,0,1,1,9.23,9.23A9.24,9.24,0,0,1,268.42,663.78Z"/><circle class="cls-2" cx="188.18" cy="663.78" r="9.23"/><path class="cls-2" d="M89.47,663.78A9.24,9.24,0,1,1,98.71,673,9.24,9.24,0,0,1,89.47,663.78Z"/><path class="cls-2" d="M0,663.78A9.24,9.24,0,1,1,9.23,673,9.24,9.24,0,0,1,0,663.78Z"/><path class="cls-2" d="M268.42,586.37a9.24,9.24,0,1,1,9.23,9.23A9.24,9.24,0,0,1,268.42,586.37Z"/><circle class="cls-2" cx="188.18" cy="586.37" r="9.23"/><path class="cls-2" d="M89.47,586.37a9.24,9.24,0,1,1,9.24,9.23A9.24,9.24,0,0,1,89.47,586.37Z"/><path class="cls-2" d="M0,586.37a9.24,9.24,0,1,1,9.23,9.23A9.24,9.24,0,0,1,0,586.37Z"/><path class="cls-2" d="M268.42,509a9.24,9.24,0,1,1,9.23,9.23A9.24,9.24,0,0,1,268.42,509Z"/><path class="cls-2" d="M179,509a9.23,9.23,0,1,1,9.23,9.23A9.24,9.24,0,0,1,179,509Z"/><path class="cls-2" d="M89.47,509a9.24,9.24,0,1,1,9.24,9.23A9.24,9.24,0,0,1,89.47,509Z"/><path class="cls-2" d="M0,509a9.24,9.24,0,1,1,9.23,9.23A9.24,9.24,0,0,1,0,509Z"/><g class="cls-3"><rect class="cls-2" x="178.07" y="651.88" width="332.11" height="352.47" transform="translate(688.24 1656.23) rotate(180)"/></g><g class="cls-3"><rect class="cls-2" x="661.55" width="453.41" height="453.41" transform="translate(1776.5 453.41) rotate(180)"/></g><polygon points="745.22 300.25 806.37 365.14 888.25 287.97 970.13 365.14 1031.28 300.25 953.25 226.7 1031.28 153.16 970.13 88.27 888.25 165.44 806.37 88.27 745.22 153.16 823.25 226.7 745.22 300.25"/><path d="M970.2,665.78l-82-77.24-82,77.24-63.48-67.36,77.95-73.48-77.95-73.48,63.48-67.35,82,77.23,82-77.23,63.48,67.35-78,73.48,78,73.48Zm-82-81.91L970.06,661l58.82-62.42-78.11-73.62,78.11-73.62-58.82-62.41L888.25,466l-81.81-77.1-58.82,62.41,78.11,73.62-78.11,73.62L806.44,661Z"/></g></g></g></svg>