<svg xmlns="http://www.w3.org/2000/svg" viewBox="0 0 494.77 213.28"><defs><style>.cls-1{fill:#5b63b7;}</style></defs><g id="Capa_2" data-name="Capa 2"><g id="Capa_1-2" data-name="Capa 1"><rect y="35.22" width="461.95" height="178.06"/><path class="cls-1" d="M60.57,60.47H96.86V84.66H29.13V0H94.44V24.19H60.57v6H92V54.43H60.57Z"/><path class="cls-1" d="M170.64,0V26.61H139.19v9.67h25.4V60.47h-25.4V84.66H107.74V0Z"/><path class="cls-1" d="M230.84,84.66,216.33,56.85h-1.21V84.66H183.67V0h35.08A62,62,0,0,1,236,2.13,35.15,35.15,0,0,1,248.08,8a23.14,23.14,0,0,1,7.07,9.16A29.62,29.62,0,0,1,257.45,29a30.48,30.48,0,0,1-1.69,10.87,29.55,29.55,0,0,1-3.75,7.1A20.67,20.67,0,0,1,246.56,52l20.56,32.65ZM218.75,35.07a7.5,7.5,0,0,0,5.2-1.84,6,6,0,0,0,0-9,7.5,7.5,0,0,0-5.2-1.84h-3.63V35.07Z"/><path class="cls-1" d="M335.19,0c0,.08.36,1.35,1.09,3.81s1.67,5.68,2.84,9.68l4,13.6q2.24,7.62,4.54,15.48Q353.1,61.2,360,84.66H324.91l-2.42-12.09H306.77l-2.42,12.09H269.27L294.07,0ZM318.86,53.22l-4.23-21.77L310.4,53.22Z"/><path class="cls-1" d="M396.54,84.66H365.09V0h31.45Z"/><path class="cls-1" d="M439.14,47.17V84.66H407.69V0h35.07l20.57,37.49V0h31.44V84.66H459.7Z"/><path class="cls-1" d="M113.67,90.71c0,.08.47,1.35,1.4,3.81s2.14,5.68,3.64,9.68l5.12,13.6,5.82,15.48q7,18.63,15.82,42.09h-45l-3.11-12.09H77.22l-3.11,12.09h-45l31.8-84.66ZM92.73,143.93,87.3,122.16l-5.43,21.77Z"/><path class="cls-1" d="M463,90.71c0,.08.47,1.35,1.4,3.81s2.14,5.68,3.64,9.68l5.12,13.6L479,133.28q7,18.63,15.82,42.09h-45l-3.1-12.09H426.52l-3.11,12.09h-45l31.8-84.66ZM442,143.93l-5.43-21.77-5.43,21.77Z"/><path class="cls-1" d="M169.5,116.58,178,92.39h36.29l-29,52v32.65H153.77V144.4l-29-52H161Z"/><path class="cls-1" d="M265.92,92.39c0,.08.36,1.35,1.09,3.81s1.67,5.68,2.84,9.68l4,13.6q2.24,7.62,4.54,15.48,5.43,18.63,12.33,42.09H255.64L253.22,165H237.5l-2.42,12.09H200l24.8-84.66Zm-16.33,53.22-4.23-21.77-4.24,21.77Z"/><path class="cls-1" d="M330.62,149.24H378v27.81H299.18V92.39h31.44Z"/></g></g></svg>